PathFileType	4	(X/Y/Z)	/Users/itak/Documents/Research/Walk-IL/dataset/trc/00173_00008.trc
DataRate	CameraRate	NumFrames	NumMarkers	Units	OrigDataRate	OrigDataStartFrame	OrigNumFrames
100.000000	100.000000	4	53	mm	100.000000	462	617
Frame#	Time	RPSI			LPSI			L3			STRN			T10			C7			CLAV			RBAK			LBAK			LSHO			LUPA			LAEL			LAOL			LWTS			LWPS			LFRA			LIFD			LHPS			LHTS			RSHO			RUPA			RAEL			RAOL			RWTS			RWPS			RFRA			RIFD			RHTS			RHPS			RBHD			LFHD			RFHD			LBHD			LHIP			RHIP			RASI			LASI			LKNE			LTHI			LANK			LTIP			LTOE			LMT1			LMT5			LHEE			RKNE			RTHI			RANK			RTIP			RTOE			RMT1			RMT5			RHEE			
		X1	Y1	Z1	X2	Y2	Z2	X3	Y3	Z3	X4	Y4	Z4	X5	Y5	Z5	X6	Y6	Z6	X7	Y7	Z7	X8	Y8	Z8	X9	Y9	Z9	X10	Y10	Z10	X11	Y11	Z11	X12	Y12	Z12	X13	Y13	Z13	X14	Y14	Z14	X15	Y15	Z15	X16	Y16	Z16	X17	Y17	Z17	X18	Y18	Z18	X19	Y19	Z19	X20	Y20	Z20	X21	Y21	Z21	X22	Y22	Z22	X23	Y23	Z23	X24	Y24	Z24	X25	Y25	Z25	X26	Y26	Z26	X27	Y27	Z27	X28	Y28	Z28	X29	Y29	Z29	X30	Y30	Z30	X31	Y31	Z31	X32	Y32	Z32	X33	Y33	Z33	X34	Y34	Z34	X35	Y35	Z35	X36	Y36	Z36	X37	Y37	Z37	X38	Y38	Z38	X39	Y39	Z39	X40	Y40	Z40	X41	Y41	Z41	X42	Y42	Z42	X43	Y43	Z43	X44	Y44	Z44	X45	Y45	Z45	X46	Y46	Z46	X47	Y47	Z47	X48	Y48	Z48	X49	Y49	Z49	X50	Y50	Z50	X51	Y51	Z51	X52	Y52	Z52	X53	Y53	Z53	

463	4.62	-1163.6875	1071.864501953125	418.1548767089844	-1175.209838867188	1075.316650390625	296.5117797851562	-1163.125610351562	1113.871948242188	361.4718933105469	-883.450927734375	1295.600341796875	326.6074829101562	-1176.187866210938	1273.002197265625	358.4506530761719	-1091.79248046875	1535.657104492188	326.4217834472656	-902.8013916015625	1410.947509765625	312.7960815429688	-1160.177856445312	1371.199951171875	451.4483337402344	-1113.251708984375	1506.869018554688	227.6595764160156	-1047.746948242188	1480.31689453125	142.4910583496094	-1103.967651367188	1349.398559570312	84.63686370849609	-1119.5966796875	1134.192138671875	75.53842163085938	-1146.078735351562	1123.185546875	159.8683471679688	-1011.867492675781	899.4132690429688	83.61345672607422	-1101.345703125	879.222900390625	65.82107543945312	-1115.050903320312	1022.120361328125	62.27869033813477	-994.387939453125	714.9290771484375	106.0623321533203	-1080.089965820312	808.958251953125	66.42960357666016	-1007.581176757812	820.1234130859375	64.19517517089844	-1010.332275390625	1515.598022460938	499.5466003417969	-1027.029663085938	1454.033935546875	574.7008056640625	-1048.990966796875	1169.133422851562	647.8640747070312	-1067.615966796875	1156.125244140625	551.3679809570312	-912.0056762695312	940.837646484375	622.5593872070312	-980.393798828125	925.83984375	678.0418701171875	-1021.88330078125	1096.95654296875	666.118896484375	-897.7135009765625	752.5839233398438	604.957275390625	-883.392333984375	847.6212768554688	632.3063354492188	-951.3090209960938	842.3432006835938	674.6690063476562	-1019.324890136719	1693.222778320312	386.3269958496094	-880.0491333007812	1727.158203125	221.8899993896484	-853.706787109375	1736.266357421875	348.9170227050781	-1052.784790039062	1691.3671875	252.4969787597656	-1086.523803710938	1015.238586425781	166.36962890625	-1010.589233398438	1009.251159667969	533.9224853515625	-931.2710571289062	1035.557983398438	475.2539672851562	-955.4590454101562	1042.706909179688	217.7793579101562	-901.001220703125	533.3766479492188	150.1279449462891	-952.7683715820312	672.4844970703125	137.0792083740234	-977.86328125	58.13469696044922	126.2536087036133	-938.5942993164062	302.1253356933594	124.1970672607422	-762.99365234375	81.46910095214844	117.2016220092773	-802.1541748046875	74.04071044921875	171.4620056152344	-876.1737670898438	55.42251586914062	71.64965057373047	-1017.822570800781	57.44249725341797	203.264892578125	-1022.205200195312	509.1268310546875	488.4642333984375	-970.0466918945312	775.1766967773438	526.03125	-1169.957153320312	35.81067657470703	475.7716064453125	-1024.258666992188	386.0993957519531	468.3379516601562	-944.3432006835938	45.26695251464844	447.6690063476562	-996.2097778320312	40.72138977050781	401.5966796875	-1054.820434570312	34.79734420776367	515.0859985351562	-1208.358154296875	30.39138221740723	412.2466430664062	
464	4.63	-1167.296264648438	1072.212890625	418.206298828125	-1178.318237304688	1075.752197265625	296.4891967773438	-1166.506958007812	1114.259887695312	361.5790710449219	-887.0305786132812	1296.21142578125	327.7538757324219	-1179.81201171875	1273.294555664062	358.8075561523438	-1095.634887695312	1536.087280273438	327.1259765625	-906.4963989257812	1411.516479492188	313.9152221679688	-1164.174926757812	1371.490478515625	451.9220886230469	-1116.805419921875	1507.215087890625	228.3635559082031	-1051.260375976562	1480.859375	143.2590026855469	-1107.326171875	1349.786987304688	85.34510040283203	-1123.070678710938	1134.56982421875	76.35052490234375	-1149.703491210938	1123.642944335938	160.6402435302734	-1015.482543945312	899.7615966796875	84.71925354003906	-1104.97802734375	879.599853515625	66.93207550048828	-1118.58447265625	1022.489135742188	63.17308807373047	-998.1456909179688	715.300537109375	107.2200012207031	-1083.77197265625	809.3243408203125	67.56477355957031	-1011.240600585938	820.4777221679688	65.32394409179688	-1014.509643554688	1516.012939453125	500.4523010253906	-1031.46533203125	1454.464233398438	575.5640869140625	-1054.275390625	1169.799072265625	648.8779296875	-1072.49755859375	1156.836181640625	552.29541015625	-918.6849365234375	940.5707397460938	625.1846313476562	-987.6141967773438	926.271484375	680.2640380859375	-1027.691650390625	1097.603149414062	667.4741821289062	-905.5916748046875	752.1680908203125	608.2276000976562	-890.8017578125	847.177734375	635.4358520507812	-959.0662841796875	842.5367431640625	677.310302734375	-1023.371337890625	1693.70654296875	387.2793579101562	-883.9257202148438	1727.872192382812	223.1308441162109	-857.7706298828125	1736.857177734375	350.2170715332031	-1056.67041015625	1691.981201171875	253.4452056884766	-1089.73046875	1015.612915039062	166.7881927490234	-1014.623474121094	1009.6630859375	534.5363159179688	-934.9580688476562	1036.03466796875	476.1715087890625	-958.2473754882812	1043.2138671875	218.6309509277344	-904.573486328125	533.3049926757812	150.7505187988281	-955.5850830078125	672.864501953125	137.9589538574219	-991.6060180664062	59.57151031494141	126.594596862793	-946.9090576171875	302.6549682617188	124.665283203125	-776.239990234375	79.21055603027344	118.5532760620117	-815.558837890625	72.51937103271484	172.6067047119141	-889.6358032226562	55.00436782836914	72.52162170410156	-1031.747192382812	59.54957580566406	203.5340423583984	-1024.595581054688	509.6114501953125	488.9100952148438	-973.3861694335938	775.6837768554688	526.7078247070312	-1170.184814453125	35.63417816162109	475.8510437011719	-1026.104736328125	386.5897827148438	468.7019653320312	-944.7807006835938	45.94095993041992	447.6334838867188	-996.5496215820312	40.90730285644531	401.697265625	-1055.028686523438	34.92156219482422	515.003173828125	-1208.330932617188	29.96431350708008	412.5772399902344	
465	4.64	-1170.7705078125	1072.50390625	418.146240234375	-1181.279418945312	1076.127319335938	296.361572265625	-1169.756103515625	1114.593994140625	361.5593872070312	-890.5023193359375	1296.79345703125	328.8525695800781	-1183.32568359375	1273.52685546875	359.027099609375	-1099.392333984375	1536.4736328125	327.738037109375	-910.0909423828125	1412.060302734375	314.9915161132812	-1168.097290039062	1371.723999023438	452.2639770507812	-1120.238891601562	1507.514282226562	228.9724426269531	-1054.647583007812	1481.38525390625	143.9438629150391	-1110.52587890625	1350.146240234375	85.95621490478516	-1126.442016601562	1134.931030273438	77.04518890380859	-1153.203491210938	1124.076538085938	161.3037109375	-1019.055419921875	900.0735473632812	85.60948181152344	-1108.572143554688	879.9580078125	67.89749145507812	-1122.039916992188	1022.840454101562	63.93383026123047	-1001.808471679688	715.6382446289062	108.0512466430664	-1087.422241210938	809.6737060546875	68.50228118896484	-1014.887145996094	820.8153076171875	66.18874359130859	-1018.66015625	1516.378051757812	501.2898254394531	-1035.884521484375	1454.835693359375	576.3482055664062	-1059.443603515625	1170.410278320312	649.8309936523438	-1077.289306640625	1157.486938476562	553.21142578125	-925.2513427734375	940.2766723632812	627.6575927734375	-994.6465454101562	926.6751098632812	682.3966064453125	-1033.357421875	1098.210327148438	668.7530517578125	-913.423095703125	751.7376098632812	611.3131103515625	-898.1182861328125	846.7124633789062	638.3590087890625	-966.6560668945312	842.7130737304688	679.836669921875	-1027.360717773438	1694.15576171875	388.1525268554688	-887.7767944335938	1728.575439453125	224.2711334228516	-861.8201904296875	1737.476318359375	351.4250793457031	-1060.509887695312	1692.520385742188	254.3207855224609	-1092.844482421875	1015.890197753906	167.1262359619141	-1018.500183105469	1010.056823730469	535.0448608398438	-938.511962890625	1036.496704101562	476.9830627441406	-960.891845703125	1043.654663085938	219.3699645996094	-908.292724609375	533.0548706054688	151.3935546875	-958.4583129882812	673.0699462890625	138.7644348144531	-1005.354553222656	61.0511589050293	126.8153915405273	-955.3031005859375	303.1316833496094	125.0880584716797	-789.5711669921875	77.05479431152344	119.9738159179688	-829.0675659179688	71.091064453125	173.7719573974609	-903.0992431640625	54.6692008972168	73.35890960693359	-1045.726196289062	61.6834716796875	203.6518707275391	-1026.881713867188	510.0665283203125	489.3154296875	-976.4969482421875	776.17626953125	527.2806396484375	-1170.406982421875	35.46054077148438	475.9378356933594	-1027.87060546875	387.0661010742188	469.0185852050781	-945.2245483398438	46.63330459594727	447.6094665527344	-996.8976440429688	41.12006378173828	401.7951965332031	-1055.255249023438	35.03670120239258	514.9315795898438	-1208.375732421875	29.60136032104492	412.8545227050781	
466	4.65	-1174.102172851562	1072.746337890625	417.9945983886719	-1184.09912109375	1076.449829101562	296.1497497558594	-1172.8701171875	1114.880004882812	361.4306640625	-893.8699340820312	1297.36181640625	329.8960876464844	-1186.724731445312	1273.706909179688	359.1183166503906	-1103.072143554688	1536.82275390625	328.2595520019531	-913.5890502929688	1412.594970703125	316.0188598632812	-1171.943359375	1371.913330078125	452.4707336425781	-1123.559936523438	1507.78125	229.4838562011719	-1057.905883789062	1481.906860351562	144.5463562011719	-1113.5673828125	1350.499755859375	86.46685791015625	-1129.695190429688	1135.296997070312	77.6234130859375	-1156.56396484375	1124.507202148438	161.8601379394531	-1022.583618164062	900.3583984375	86.29989624023438	-1112.125	880.319580078125	68.71318817138672	-1125.405029296875	1023.19775390625	64.5614013671875	-1005.400451660156	715.9448852539062	108.6003570556641	-1091.04443359375	810.025390625	69.25383758544922	-1018.524658203125	821.1385498046875	66.81639099121094	-1022.790649414062	1516.708129882812	502.0558166503906	-1040.289672851562	1455.166015625	577.048828125	-1064.495361328125	1170.982177734375	650.6987915039062	-1081.979370117188	1158.071166992188	554.0892944335938	-931.6878051757812	939.9756469726562	629.9733276367188	-1001.47998046875	927.0735473632812	684.435546875	-1038.885375976562	1098.7939453125	669.9391479492188	-921.1920166015625	751.3040161132812	614.2344360351562	-905.3263549804688	846.2390747070312	641.080078125	-974.0652465820312	842.8922119140625	682.255615234375	-1031.287719726562	1694.585083007812	388.9544067382812	-891.5862426757812	1729.269653320312	225.3174438476562	-865.8359375	1738.11962890625	352.5426940917969	-1064.296142578125	1693.003662109375	255.1261749267578	-1095.843139648438	1016.092346191406	167.392333984375	-1022.19140625	1010.435852050781	535.4510498046875	-941.926025390625	1036.950927734375	477.6866760253906	-963.4043579101562	1044.043823242188	219.9909362792969	-912.1819458007812	532.6397094726562	152.0555419921875	-961.40478515625	673.1090087890625	139.5008697509766	-1019.031433105469	62.55903625488281	126.9522323608398	-963.755615234375	303.55029296875	125.4851837158203	-802.9219360351562	75.01889801025391	121.4382476806641	-842.6072998046875	69.76999664306641	174.9458160400391	-916.5098876953125	54.42691802978516	74.16626739501953	-1059.672485351562	63.82171249389648	203.66162109375	-1029.051513671875	510.4900512695312	489.6742248535156	-979.3936767578125	776.6566162109375	527.7518920898438	-1170.629516601562	35.29075622558594	476.03076171875	-1029.541381835938	387.5259094238281	469.2860717773438	-945.6688232421875	47.33996200561523	447.5993041992188	-997.2520751953125	41.36198806762695	401.8892822265625	-1055.503051757812	35.14322662353516	514.8727416992188	-1208.520874023438	29.31654739379883	413.0555419921875	
